<svg xmlns="http://www.w3.org/2000/svg" viewBox="0 0 57 57"><g fill="#47abff"><g transform="translate(-8.064516129032258, -2.232526579210835) scale(2.6881720430107525)"><path d="M5,20l1.542-1.542c0.377,0.196,0.85,0.15,1.165-0.165L8,18h2l-4-4v2l-0.293,0.293c-0.315,0.315-0.361,0.788-0.165,1.165 L3,20v2h21L5,20z"/><rect width="5.657" height="13.435" x="10.922" y="3.532" transform="matrix(0.7071 0.7071 -0.7071 0.7071 11.2751 -6.7206)"/><path d="M22.586,5.414c0.777-0.778,0.777-2.05,0-2.828l-1.172-1.172c-0.777-0.778-2.051-0.778-2.828,0L17.5,2.5l4,4L22.586,5.414z"/></g></g></svg>