<svg width="453.05000000000007" height="69.7657860073242" viewBox="0 0 369.54838709677415 56.90725900793588"
    xmlns="http://www.w3.org/2000/svg">
    <g transform="matrix(2.6881720430107525,0,0,2.6881720430107525,-8.064516129032258,-2.232526579210835)"
        fill="#47abff">
        <g>
            <path
                d="M5,20l1.542-1.542c0.377,0.196,0.85,0.15,1.165-0.165L8,18h2l-4-4v2l-0.293,0.293c-0.315,0.315-0.361,0.788-0.165,1.165   L3,20v2h21L5,20z">
            </path>
            <rect x="10.922" y="3.532" transform="matrix(0.7071 0.7071 -0.7071 0.7071 11.2751 -6.7206)" width="5.657"
                height="13.435"></rect>
            <path
                d="M22.586,5.414c0.777-0.778,0.777-2.05,0-2.828l-1.172-1.172c-0.777-0.778-2.051-0.778-2.828,0L17.5,2.5l4,4L22.586,5.414z">
            </path>
        </g>
    </g>
    <g transform="matrix(2.2005333874115167,0,0,2.2005333874115167,74.32473269147592,-3.4977867393659583)"
        fill="#333">
        <path
            d="M14.902 13.6719 l-1.4844 6.3672 l-4.8926 0 l1.3867 -5.9766 l-2.832 0 l-1.3965 5.9766 l-4.9219 0 l1.4746 -6.3672 l-0.98633 0 l1.8848 -8.2422 l4.9219 0 l-1.123 4.9512 l2.8223 0 l1.1426 -4.9512 l4.9023 0 l-1.9043 8.2422 l1.0059 0 z M16.660121875 14.5703 c0.078125 -0.33203 0.18555 -0.625 0.2832 -0.9375 l-1.084 0 c2.3438 -6.377 12.383 -7.0117 11.084 0 l1.0938 0 c-0.019531 0.11719 -0.019531 0.23438 -0.048828 0.36133 l-0.41992 1.6309 l-6.4648 0 c-0.33203 2.4121 4.248 1.6797 4.6973 0.81055 l1.4941 0 l-0.71289 2.7832 c-3.8574 2.2168 -11.357 1.6602 -9.9219 -4.6484 z M23.584021874999998 12.685500000000001 c0.21484 -1.0645 -2.1289 -1.6699 -3.2324 0 c0.0097656 0 3.2324 0.0097656 3.2324 0 z M28.84770625 13.789100000000001 l-1.0254 0 l0.84961 -3.7793 l4.6582 0 l-0.84961 3.7793 l1.0352 0 l-1.377 6.2109 l-4.6582 0 z M34.53120625 5.234 l-0.81055 3.5352 l-4.8242 0 l0.81055 -3.5352 l4.8242 0 z M41.582028125 13.789100000000001 l-1.0547 0 c0.029297 -0.10742 0.048828 -0.22461 0.048828 -0.3418 c0.13672 -1.1035 -0.3125 -1.1719 -1.2109 -0.67383 l-0.23438 1.0156 l1.0449 0 l-1.4355 6.2109 l-4.6387 0 l1.4453 -6.2109 l-1.0547 0 l1.9629 -8.5547 l4.6387 0 l-0.94727 4.1113 c1.4648 -0.67383 3.9453 -0.9375 4.9609 0.56641 c0.49805 0.74219 0.57617 1.8066 0.24414 3.2227 l-0.15625 0.6543 l1.0645 0 l-1.4258 6.2109 l-4.668 0 l1.2207 -5.3125 c0.048828 -0.17578 0.13672 -0.53711 0.19531 -0.89844 z M47.43160625 14.5703 c0.078125 -0.33203 0.18555 -0.625 0.2832 -0.9375 l-1.084 0 c2.3438 -6.377 12.383 -7.0117 11.084 0 l1.0938 0 c-0.019531 0.11719 -0.019531 0.23438 -0.048828 0.36133 l-0.41992 1.6309 l-6.4648 0 c-0.33203 2.4121 4.248 1.6797 4.6973 0.81055 l1.4941 0 l-0.71289 2.7832 c-3.8574 2.2168 -11.357 1.6602 -9.9219 -4.6484 z M54.35550625 12.685500000000001 c0.21484 -1.0645 -2.1289 -1.6699 -3.2324 0 c0.0097656 0 3.2324 0.0097656 3.2324 0 z M59.619190625 13.789100000000001 l-1.0254 0 l0.84961 -3.7793 l4.6582 0 l-0.84961 3.7793 l1.0352 0 l-1.377 6.2109 l-4.6582 0 z M65.302690625 5.234 l-0.81055 3.5352 l-4.8242 0 l0.81055 -3.5352 l4.8242 0 z M66.6016125 5.225 l3.1348 0 l-1.9141 4.3555 l-2.2656 0 z M78.877140625 13.6328 c0.79102 0.60547 1.0742 1.4941 0.79102 2.7148 c-0.94727 4.248 -7.1484 4.707 -10.449 2.832 l0.79102 -3.3789 l1.3281 0 c0.14648 0.80078 1.6211 1.6113 3.0859 1.2598 c0.9082 -0.24414 0.55664 -0.56641 -0.068359 -0.74219 c-0.92773 -0.25391 -2.4121 -0.13672 -3.3496 -1.6211 c-0.18555 -0.30273 -0.2832 -0.70313 -0.30273 -1.0645 l-0.91797 0 c-0.058594 -0.89844 0.30273 -1.8457 0.79102 -2.5098 c2.0801 -2.7148 6.416 -2.9688 9.3066 -1.4063 l-0.71289 3.0664 l-1.3672 0 c-0.39063 -0.67383 -2.5391 -1.3086 -3.1348 -0.78125 c-0.20508 0.20508 -0.068359 0.56641 0.9668 0.76172 c0.41016 0.078125 0.86914 0.16602 1.2695 0.30273 c0.41992 0.16602 0.77148 0.35156 1.0645 0.56641 l0.9082 0 z M103.036796875 15.332 c-0.53711 2.207 -2.3926 3.8086 -4.5508 4.4238 c-0.68359 0.17578 -1.5332 0.24414 -2.5684 0.24414 l-6.0156 0 l1.4648 -6.3672 l-1.1133 0 l1.9043 -8.2031 c1.6895 0 6.8164 -0.32227 8.5449 0.3125 c1.4648 0.57617 2.1582 1.7871 1.7969 3.3691 c-0.27344 1.1816 -0.98633 2.0996 -1.9434 2.8125 c0.80078 0.40039 1.2695 1.0059 1.4258 1.709 l1.0742 0 c0.12695 0.54688 0.097656 1.0742 -0.019531 1.6992 z M98.037096875 15.273399999999999 c0.3125 -1.3574 -1.0254 -1.0938 -1.9043 -1.0938 l-0.52734 2.2559 c1.084 0 2.1484 0.12695 2.4316 -1.1621 z M97.451196875 10 c0.22461 -0.9082 -0.52734 -1.0156 -1.2402 -1.0156 l-0.37109 1.7676 c0.54688 0.048828 1.4648 -0.029297 1.6113 -0.75195 z M104.755846875 13.789100000000001 l-1.0645 0 l1.9824 -8.5547 l4.6191 0 l-1.9629 8.5547 l1.0547 0 l-1.4453 6.2109 l-4.6387 0 z M122.001953125 14.541 c-0.81055 3.5547 -3.4082 5.8203 -7.0996 5.8203 c-3.6035 0 -5.2734 -2.168 -4.4336 -5.8203 c0.068359 -0.29297 0.14648 -0.5957 0.26367 -0.86914 l-1.0059 0 c1.0449 -3.0957 3.5156 -4.9707 6.875 -4.9707 c3.457 0 4.9316 2.0215 4.5703 4.9707 l0.98633 0 c-0.029297 0.27344 -0.087891 0.57617 -0.15625 0.86914 z M114.404253125 13.6719 l0.97656 0 c-0.55664 1.4648 -0.66406 3.3789 0.30273 3.3789 c0.88867 0 1.6797 -1.9141 1.7969 -3.3789 l-0.9668 0 c0.078125 -0.91797 -0.10742 -1.6602 -0.68359 -1.6602 c-0.53711 0 -1.0742 0.74219 -1.4258 1.6602 z M128.99415 16.1133 l0.58594 -2.4805 l-1.1035 0 l0.3418 -1.4355 c-0.91797 -0.19531 -1.6797 0.51758 -2.0801 1.4355 l1.084 0 c-0.6543 1.4453 -0.51758 3.3105 1.1719 2.4805 z M134.13075 9.004 l-1.0742 4.6289 l1.1035 0 l-1.084 4.707 c-0.57617 2.5098 -2.0898 4.4824 -4.7363 5.1172 c-2.0508 0.50781 -4.2969 0.38086 -6.377 0.0097656 l0.67383 -3.3789 l1.4063 0 c0.91797 1.3672 3.8867 0.84961 4.043 -0.50781 c-4.2676 1.5039 -5.9082 -1.6211 -5.0684 -5.3125 c0.039063 -0.22461 0.087891 -0.42969 0.15625 -0.63477 l-1.1035 0 c0.84961 -2.666 3.0078 -4.9023 5.957 -4.9023 c0.66406 0 1.2109 0.10742 1.6895 0.27344 l4.4141 0 z">
        </path>
    </g>
</svg>